<svg width="22" height="12" viewBox="0 0 22 12" fill="none" xmlns="http://www.w3.org/2000/svg">
<path fill-rule="evenodd" clip-rule="evenodd" d="M1.20451 0.702666C1.64385 0.263327 2.35616 0.263327 2.7955 0.702666L10.7348 8.64201C10.8399 8.7471 10.9251 8.83224 11 8.90472C11.0749 8.83224 11.1601 8.74709 11.2652 8.64201L19.2045 0.702667C19.6438 0.263327 20.3562 0.263327 20.7955 0.702667C21.2348 1.14201 21.2348 1.85432 20.7955 2.29366L12.8562 10.233C12.844 10.2451 12.8319 10.2573 12.8196 10.2695C12.6022 10.4872 12.367 10.7225 12.1417 10.8944C11.8778 11.0958 11.5002 11.3125 11 11.3125C10.4998 11.3125 10.1222 11.0958 9.85827 10.8944C9.633 10.7225 9.39785 10.4872 9.18038 10.2695C9.16814 10.2573 9.15596 10.2451 9.14384 10.233L1.20451 2.29366C0.765166 1.85432 0.765166 1.14201 1.20451 0.702666Z" fill="#FAF8F2"/>
</svg>
