<svg width="20" height="20" viewBox="0 0 20 20" fill="none" xmlns="http://www.w3.org/2000/svg">
<path fill-rule="evenodd" clip-rule="evenodd" d="M0.5 0.53125C0.5 0.255108 0.723858 0.03125 1 0.03125H1.88906C2.98792 0.03125 3.94578 0.779119 4.21229 1.84518L4.2146 1.8544L6.61631 13.2937H13.0841C14.0962 13.2937 14.8573 13.1346 15.4447 12.862C16.0263 12.5921 16.4631 12.1993 16.8128 11.6888C17.535 10.6348 17.8783 9.10436 18.276 7.1289C18.3919 6.55331 18.4681 6.16988 18.4878 5.88248C18.507 5.60388 18.4644 5.51063 18.429 5.46193C18.4038 5.42726 18.3667 5.39078 18.2452 5.35873C18.1039 5.32148 17.8957 5.30293 17.5623 5.29679C17.2862 5.29171 17.0665 5.06377 17.0716 4.78767C17.0767 4.51158 17.3047 4.29188 17.5808 4.29696C17.9178 4.30317 18.2323 4.32112 18.5002 4.39181C18.788 4.46771 19.0465 4.61062 19.238 4.87406C19.4746 5.19963 19.5114 5.5744 19.4855 5.95114C19.4607 6.31156 19.3705 6.75958 19.2631 7.29278L19.2564 7.32626C18.8699 9.24616 18.4978 10.9988 17.6378 12.254C17.1964 12.8982 16.6254 13.4165 15.8656 13.7691C15.1116 14.119 14.1976 14.2937 13.0841 14.2937H7.09739C7.07886 14.2958 7.06001 14.2969 7.04092 14.2969H6.65115C5.68359 14.2969 4.86142 15.0959 4.8146 16.139H15.2072C15.2221 16.139 15.2369 16.1396 15.2515 16.1409C16.297 16.1588 17.139 17.0119 17.139 18.0617C17.139 19.1226 16.2789 19.9827 15.2179 19.9827C14.157 19.9827 13.2969 19.1226 13.2969 18.0617C13.2969 17.7273 13.3823 17.4128 13.5326 17.139H10.2627C10.4129 17.4128 10.4984 17.7273 10.4984 18.0617C10.4984 19.1226 9.63827 19.9827 8.5773 19.9827C7.51633 19.9827 6.65625 19.1226 6.65625 18.0617C6.65625 17.7273 6.74169 17.4128 6.89194 17.139H4.70227C4.19182 17.139 3.8125 16.7139 3.8125 16.233C3.8125 14.9935 4.56173 13.9146 5.63563 13.4896L3.23999 2.07919C3.08181 1.46284 2.52612 1.03125 1.88906 1.03125H1C0.723858 1.03125 0.5 0.807392 0.5 0.53125ZM8.5773 17.1406C8.06862 17.1406 7.65625 17.553 7.65625 18.0617C7.65625 18.5704 8.06862 18.9827 8.5773 18.9827C9.08599 18.9827 9.49836 18.5704 9.49836 18.0617C9.49836 17.553 9.08599 17.1406 8.5773 17.1406ZM14.2969 18.0617C14.2969 17.553 14.7092 17.1406 15.2179 17.1406C15.7266 17.1406 16.139 17.553 16.139 18.0617C16.139 18.5704 15.7266 18.9827 15.2179 18.9827C14.7092 18.9827 14.2969 18.5704 14.2969 18.0617Z" fill="#1F1F1F"/>
<path d="M11.4457 1C11.4457 0.723858 11.2219 0.5 10.9457 0.5C10.6696 0.5 10.4457 0.723858 10.4457 1V4.28947H7.15625C6.88011 4.28947 6.65625 4.51333 6.65625 4.78947C6.65625 5.06562 6.88011 5.28947 7.15625 5.28947H10.4457V8.57895C10.4457 8.85509 10.6696 9.07895 10.9457 9.07895C11.2219 9.07895 11.4457 8.85509 11.4457 8.57895V5.28947H14.7352C15.0113 5.28947 15.2352 5.06562 15.2352 4.78947C15.2352 4.51333 15.0113 4.28947 14.7352 4.28947H11.4457V1Z" fill="#1F1F1F"/>
</svg>
