<svg width="23" height="22" viewBox="0 0 23 22" fill="none" xmlns="http://www.w3.org/2000/svg">
<path d="M21.2753 11.4552L18.7662 13.9861C18.668 14.0733 18.5589 14.2587 18.4934 14.4987C18.4498 14.6514 18.4279 14.7933 18.4279 14.9133C18.4279 14.9788 18.4498 15.0878 18.4498 15.0878L19.1698 18.2188C19.4644 19.517 19.3771 20.837 18.4389 21.5243C17.4898 22.2115 16.2135 21.906 15.068 21.2188L12.0461 19.4188C11.9261 19.3424 11.708 19.2878 11.4571 19.2878C11.2061 19.2878 10.9879 19.3424 10.8571 19.4188L7.84613 21.2188C6.70074 21.906 5.42438 22.2115 4.47526 21.5133C3.84254 21.0443 3.59162 20.2915 3.59162 19.4406C3.59162 19.0479 3.64618 18.6334 3.74433 18.2188L4.46433 15.0879C4.48618 14.957 4.48618 14.7388 4.42069 14.4988C4.34433 14.2588 4.23526 14.0734 4.14798 13.9861L1.63885 11.4552C0.79885 10.6152 0.329772 9.56784 0.646131 8.55333C0.973412 7.53877 1.96613 6.96061 3.13341 6.76425L6.36254 6.21877C6.47162 6.20789 6.64613 6.13148 6.83162 5.98969C7.02793 5.84784 7.14798 5.69512 7.20249 5.58605L8.98069 1.99697C9.52613 0.906094 10.3771 0.0878906 11.4571 0.0878906C12.537 0.0878906 13.3879 0.906047 13.9225 1.99697L15.7007 5.58605C15.7552 5.69512 15.8752 5.84789 16.0607 5.98969C16.2571 6.13148 16.4316 6.19697 16.5516 6.21877L19.7807 6.76425C20.948 6.96061 21.9407 7.53881 22.268 8.55333C22.3334 8.77153 22.3661 8.98969 22.3661 9.20789C22.3661 10.0043 21.9407 10.7897 21.2753 11.4552Z" fill="url(#paint0_linear_1_720)"/>
<defs>
<linearGradient id="paint0_linear_1_720" x1="11.4565" y1="0.0878906" x2="11.4565" y2="21.9116" gradientUnits="userSpaceOnUse">
<stop stop-color="#C1842D"/>
<stop offset="1" stop-color="#ECC974"/>
</linearGradient>
</defs>
</svg>
