<svg width="364" height="359" viewBox="0 0 364 359" fill="none" xmlns="http://www.w3.org/2000/svg">
<path d="M422.743 217.806C422.533 224.463 417.536 229.937 411.027 231.345C390.283 235.835 368.084 244.981 344.435 258.784C316.046 275.126 289.443 298.859 264.623 329.984C242.795 357.047 227.632 384.32 219.136 411.803C217.124 418.312 211.151 422.919 204.341 422.705C197.665 422.494 192.055 417.706 190.424 411.229C183.52 383.803 171.746 357.221 155.101 331.483C135.863 301.903 112.444 276.96 84.8443 256.652C60.2545 238.681 35.7709 226.106 11.3939 218.925C5.00785 217.043 0.457309 211.226 0.667085 204.571C0.879163 197.843 5.89308 192.287 12.4715 190.855C27.3228 187.622 42.5869 182.319 58.2634 174.947C77.6272 165.654 96.3447 153.592 114.416 138.758C132.133 123.547 148.259 106.45 162.793 87.4711C181.58 62.663 195.03 37.2663 203.143 11.2768C205.133 4.90075 211.007 0.421586 217.682 0.632001C224.458 0.845583 230.08 5.82867 231.666 12.4189C235.698 29.1816 242.507 46.5199 252.089 64.4294C263.877 86.0735 278.091 106.326 294.734 125.189C311.01 144.038 328.306 159.62 346.621 171.934C369.402 187.228 391.149 197.77 411.867 203.557C418.294 205.352 422.953 211.139 422.743 217.806Z" fill="white" fill-opacity="0.4"/>
</svg>
