<svg width="34" height="32" viewBox="0 0 34 32" fill="none" xmlns="http://www.w3.org/2000/svg">
<path fill-rule="evenodd" clip-rule="evenodd" d="M24.7309 3.23514C21.9059 3.23514 19.3696 3.79333 17.4851 4.67349C15.2457 5.71941 12.365 6.32991 9.25706 6.32991C7.52423 6.32991 5.86749 6.14026 4.35579 5.79401C3.43742 5.58366 2.68066 6.27034 2.68066 6.89312V23.5616C2.68066 24.8653 2.70359 25.1836 2.8684 25.5299C2.96337 25.7295 3.24138 26.0783 3.41468 26.2155L2.69457 27.1256L3.41469 26.2155C3.72881 26.464 3.93228 26.5266 4.874 26.7423C6.20853 27.048 7.69109 27.2196 9.25706 27.2196C11.4172 27.2196 13.4146 26.8931 15.0823 26.3417C15.6908 26.1405 16.3473 26.4707 16.5485 27.0792C16.7497 27.6878 16.4195 28.3442 15.8109 28.5454C13.8881 29.1812 11.6427 29.5407 9.25706 29.5407C7.52423 29.5407 5.86749 29.351 4.35579 29.0048C4.32548 28.9979 4.29538 28.991 4.26547 28.9842C3.41923 28.7908 2.72983 28.6334 1.97445 28.0357C1.52254 27.6781 1.02025 27.0477 0.772595 26.5274L1.81367 26.0319L0.772594 26.5274C0.3576 25.6555 0.358439 24.7929 0.359477 23.7249C0.35953 23.671 0.359583 23.6166 0.359583 23.5616V6.89312C0.359583 4.46807 2.82148 3.0614 4.874 3.53152C6.20853 3.83719 7.6911 4.00883 9.25706 4.00883C12.082 4.00883 14.6184 3.45064 16.5029 2.57048C18.7423 1.52457 21.623 0.914062 24.7309 0.914062C26.4637 0.914062 28.1205 1.10372 29.6322 1.44997C29.6625 1.45691 29.6926 1.46378 29.7225 1.47061C30.5687 1.66392 31.2581 1.8214 32.0135 2.41911C32.4654 2.77668 32.9677 3.40702 33.2154 3.92735C33.6304 4.79927 33.6295 5.66184 33.6285 6.72984C33.6284 6.78373 33.6284 6.83815 33.6284 6.89312V15.2274C33.6284 15.8683 33.1088 16.3879 32.4679 16.3879C31.8269 16.3879 31.3073 15.8683 31.3073 15.2274V6.89312C31.3073 5.58947 31.2844 5.27113 31.1196 4.92487C31.0246 4.72532 30.7466 4.37643 30.5733 4.2393C30.2592 3.99075 30.0557 3.92815 29.114 3.71246C27.7794 3.40679 26.2969 3.23514 24.7309 3.23514Z" fill="url(#paint0_linear_1_943)"/>
<path d="M23.9622 31.2109C23.6527 31.2109 23.1885 30.9014 23.0338 30.592C22.1054 28.5804 21.1769 28.2709 21.1769 28.2709C20.558 28.2709 20.0938 27.8067 20.0938 27.3425C20.0938 26.7235 20.558 26.2593 21.1769 26.2593C21.4864 26.2593 22.7243 26.414 24.117 28.2709C25.6643 26.1045 29.0686 21.9266 32.1634 20.6887C32.7823 20.534 33.4013 20.8434 33.556 21.3076C33.7108 21.9266 33.4013 22.5456 32.9371 22.7003C29.8423 23.6287 26.1286 28.7351 24.8906 30.7467C24.7359 31.0562 24.4264 31.2109 23.9622 31.2109Z" fill="url(#paint1_linear_1_943)"/>
<path fill-rule="evenodd" clip-rule="evenodd" d="M17.0056 12.5086C15.51 12.5086 14.2976 13.721 14.2976 15.2165C14.2976 16.7121 15.51 17.9244 17.0056 17.9244C18.5011 17.9244 19.7135 16.7121 19.7135 15.2165C19.7135 13.721 18.5011 12.5086 17.0056 12.5086ZM11.9766 15.2165C11.9766 12.4391 14.2281 10.1875 17.0056 10.1875C19.783 10.1875 22.0346 12.4391 22.0346 15.2165C22.0346 17.9939 19.783 20.2455 17.0056 20.2455C14.2281 20.2455 11.9766 17.9939 11.9766 15.2165Z" fill="url(#paint2_linear_1_943)"/>
<path fill-rule="evenodd" clip-rule="evenodd" d="M6.93676 15.2187C7.79148 15.2187 8.48437 15.9116 8.48437 16.7664L8.48437 16.7803C8.48437 17.635 7.79148 18.3279 6.93676 18.3279C6.08203 18.3279 5.38914 17.635 5.38914 16.7803L5.38914 16.7664C5.38914 15.9116 6.08203 15.2187 6.93676 15.2187Z" fill="url(#paint3_linear_1_943)"/>
<path fill-rule="evenodd" clip-rule="evenodd" d="M27.0774 12.1094C27.9321 12.1094 28.625 12.8023 28.625 13.657L28.625 13.6709C28.625 14.5256 27.9321 15.2185 27.0774 15.2185C26.2227 15.2185 25.5298 14.5256 25.5298 13.6709L25.5298 13.657C25.5298 12.8023 26.2227 12.1094 27.0774 12.1094Z" fill="url(#paint4_linear_1_943)"/>
<defs>
<linearGradient id="paint0_linear_1_943" x1="16.994" y1="0.914062" x2="16.994" y2="29.5407" gradientUnits="userSpaceOnUse">
<stop stop-color="#C1842D"/>
<stop offset="1" stop-color="#ECC974"/>
</linearGradient>
<linearGradient id="paint1_linear_1_943" x1="26.845" y1="20.6484" x2="26.845" y2="31.2109" gradientUnits="userSpaceOnUse">
<stop stop-color="#C1842D"/>
<stop offset="1" stop-color="#ECC974"/>
</linearGradient>
<linearGradient id="paint2_linear_1_943" x1="17.0056" y1="10.1875" x2="17.0056" y2="20.2455" gradientUnits="userSpaceOnUse">
<stop stop-color="#C1842D"/>
<stop offset="1" stop-color="#ECC974"/>
</linearGradient>
<linearGradient id="paint3_linear_1_943" x1="8.48437" y1="16.7733" x2="5.38914" y2="16.7733" gradientUnits="userSpaceOnUse">
<stop stop-color="#C1842D"/>
<stop offset="1" stop-color="#ECC974"/>
</linearGradient>
<linearGradient id="paint4_linear_1_943" x1="28.625" y1="13.6639" x2="25.5298" y2="13.6639" gradientUnits="userSpaceOnUse">
<stop stop-color="#C1842D"/>
<stop offset="1" stop-color="#ECC974"/>
</linearGradient>
</defs>
</svg>
