<svg width="23" height="22" viewBox="0 0 23 22" fill="none" xmlns="http://www.w3.org/2000/svg">
<path d="M18.7628 13.9866L21.2719 11.4557C21.9374 10.7902 22.3628 10.0048 22.3628 9.20838C22.3628 8.99018 22.3301 8.77202 22.2646 8.55382C21.9373 7.5393 20.9446 6.9611 19.7773 6.76474L16.5483 6.21925C16.4283 6.19746 16.2537 6.13197 16.0573 5.99018C15.8719 5.84838 15.7519 5.69561 15.6973 5.58653L13.9191 1.99746C13.3846 0.906535 12.5336 0.0883789 11.4537 0.0883789C10.3737 0.0883789 9.52277 0.906582 8.97734 1.99746L7.19913 5.58653C7.14462 5.69561 7.02457 5.84833 6.82826 5.99018C6.64277 6.13197 6.46826 6.20838 6.35918 6.21925L3.13006 6.76474C1.96277 6.9611 0.970056 7.53925 0.642774 8.55382C0.326415 9.56833 0.795493 10.6157 1.63549 11.4557L4.14462 13.9866C4.2319 14.0739 4.34098 14.2593 4.41734 14.4993C4.48282 14.7393 4.48282 14.9575 4.46098 15.0884L3.74098 18.2193C3.64282 18.6339 3.58826 19.0484 3.58826 19.4411C3.58826 20.292 3.83918 21.0447 4.4719 21.5138C5.42102 22.212 6.69738 21.9065 7.84277 21.2193L10.8537 19.4193C10.9846 19.3429 11.2028 19.2883 11.4537 19.2883C11.7046 19.2883 11.9228 19.3428 12.0428 19.4193L15.0646 21.2193C16.2101 21.9065 17.4865 22.212 18.4355 21.5247C19.3737 20.8375 19.461 19.5175 19.1664 18.2193L18.4464 15.0883C18.4464 15.0883 18.4246 14.9793 18.4246 14.9138C18.4246 14.7938 18.4464 14.6519 18.4901 14.4992C18.5555 14.2592 18.6646 14.0737 18.7628 13.9865L18.7628 13.9866ZM16.8865 15.4375L17.5955 18.5356V18.5683C17.8792 19.7465 17.6065 20.1501 17.4865 20.2375C17.3774 20.3138 16.9083 20.4556 15.8828 19.8447L12.861 18.0447C12.4355 17.7938 11.9228 17.6847 11.4537 17.6847C10.9846 17.6847 10.4719 17.7938 10.0464 18.0447L7.0137 19.8447C5.99918 20.4557 5.54098 20.3138 5.42098 20.2375C5.30098 20.1393 5.02826 19.7357 5.29006 18.5683L6.01006 15.4483C6.11913 14.9793 6.06457 14.4883 5.94457 14.0629C5.82457 13.6375 5.60642 13.1902 5.27909 12.8629L2.76996 10.332C2.12632 9.68833 2.10448 9.23013 2.16996 9.03377C2.22448 8.83741 2.50817 8.48829 3.39181 8.33561L6.62093 7.80105C7.04641 7.72469 7.46093 7.51741 7.78821 7.26649C8.11549 7.01557 8.44277 6.68833 8.62821 6.29557L10.4282 2.66285C10.8428 1.83372 11.2573 1.69197 11.4536 1.69197C11.6391 1.69197 12.0646 1.84469 12.49 2.70649L14.2682 6.29557C14.4537 6.68828 14.7809 7.02649 15.1082 7.26649C15.4355 7.51736 15.85 7.72464 16.2864 7.80105L19.5046 8.33561C20.3991 8.48833 20.6828 8.83746 20.7373 9.03377C20.7482 9.07741 20.7591 9.13197 20.7591 9.20833C20.7591 9.44833 20.6391 9.83018 20.1373 10.332L17.6283 12.8629C17.301 13.1902 17.0719 13.6375 16.9519 14.0629C16.8319 14.4883 16.7883 14.9793 16.8864 15.4375H16.8865Z" fill="url(#paint0_linear_1_724)"/>
<defs>
<linearGradient id="paint0_linear_1_724" x1="11.4531" y1="0.0883789" x2="11.4531" y2="21.9121" gradientUnits="userSpaceOnUse">
<stop stop-color="#C1842D"/>
<stop offset="1" stop-color="#ECC974"/>
</linearGradient>
</defs>
</svg>
